<svg xmlns="http://www.w3.org/2000/svg" width="800px" height="800px" fill="none" viewBox="0 0 32 32"><circle cx="16" cy="16" r="14" fill="#1794D4"/><path fill="#fff" d="M18 7h-2v2h2zm-8 3h2v2h-2zm-3.998 6.941C6.172 19.843 7.9 24 14 24c6.8 0 9.833-5 10.5-7.5.833 0 2.7-.5 3.5-2.5-.5-.5-2.5-.5-3.5 0 0-.8-.5-2.5-1.5-3-.667.667-1.7 2.4-.5 4-.5 1-1.833 1-2.5 1H6.943c-.53 0-.973.413-.941.941M9 13H7v2h2z"/><path fill="#fff" d="M10 13h2v2h-2zm5 0h-2v2h2zm1 0h2v2h-2zm5 0h-2v2h2zm-6-3h-2v2h2zm1 0h2v2h-2z"/></svg>