<svg xmlns="http://www.w3.org/2000/svg" xmlns:xlink="http://www.w3.org/1999/xlink" fill="#fff" fill-rule="evenodd" stroke="#000" stroke-linecap="round" stroke-linejoin="round" viewBox="0 0 85 85"><use xlink:href="#a" x="2.5" y="2.5"/><defs><linearGradient id="b" x1="52%" x2="48%" y1="0%" y2="100%"><stop offset="0%" stop-color="#387eb8"/><stop offset="100%" stop-color="#366994"/></linearGradient><linearGradient id="c" x1="50%" x2="50%" y1="0%" y2="100%"><stop offset="0%" stop-color="#ffe052"/><stop offset="100%" stop-color="#ffc331"/></linearGradient></defs><symbol id="a" overflow="visible"><g stroke="none"><path fill="url(#b)" d="M39.712 0C19.403 0 20.671 8.853 20.671 8.853l.023 9.172h19.381v2.754H12.996S0 19.298 0 39.896s11.343 19.869 11.343 19.869h6.77v-9.559s-.365-11.402 11.162-11.402h19.222s10.799.175 10.799-10.492V10.674S60.936 0 39.712 0M29.025 6.168a3.47 3.47 0 0 1 2.466 1.026 3.51 3.51 0 0 1 0 4.958 3.48 3.48 0 0 1-4.932 0 3.51 3.51 0 0 1 0-4.958 3.48 3.48 0 0 1 2.466-1.026"/><path fill="url(#c)" d="M40.289 80c20.309 0 19.041-8.853 19.041-8.853l-.023-9.172H39.926v-2.754h27.078S80 60.703 80 40.104 68.657 20.235 68.657 20.235h-6.77v9.559s.365 11.402-11.162 11.402H31.504s-10.8-.175-10.8 10.492v17.638S19.065 80 40.289 80m10.686-6.168a3.47 3.47 0 0 1-2.466-1.026 3.51 3.51 0 0 1 0-4.958 3.48 3.48 0 0 1 4.932 0 3.51 3.51 0 0 1 0 4.958 3.48 3.48 0 0 1-2.466 1.026"/></g></symbol></svg>