<svg width="256" height="256" viewBox="0 0 67.733 67.733" xmlns="http://www.w3.org/2000/svg"><g paint-order="stroke markers fill" fill="#fff"><path d="M46.027 12.835c-.248-.042-.735.269-1.578 1.14-24.4 32.375-17.613 52.513-17.278 53.511l-.141.23h9.65c-2.514-1.68-5.67-4.802-4.608-12.46 3.017-21.753 6.175-22.745 12.914-38.121.383-.874 1.786-4.174 1.041-4.3z"/><path d="M22.01 21.38a.506.506 0 00-.162.024c-1.81.557.032 22.31 1.772 31.8 1.325 7.223 4.357 12.982 1.477 14.483h11.379c-3.988-2.805-8.996-8.964-10.72-17.971-1.072-5.604-1.86-12.239-2.095-14.453-.524-4.923-.035-13.837-1.65-13.882z"/><path d="M33.177.418c2.747.014 6.474.266 9.16 1.34 3.904 1.561 3.576 8.438 1.79 13.681l.233-.237s1.257-5.629 9.492-5.501c.549.008 1.128.042 1.741.106 8.135.837 10.196 5.678 10.196 5.678s-.594-.123-1.589-.259l-.478-1.063-.201.978c-.305-.036-.633-.07-.988-.103l-1.504-1.985-.993 1.828a41.726 41.726 0 00-1.237-.028l-3.888-3.22-.243 3.41c-1.236.121-2.517.31-3.816.588l-1.586-2.355.56 2.592c-1.01.253-2.023.566-3.028.943l-1.167-1.742-.084 2.248c-.076.033-.153.064-.23.098-1.163.522-1.901.75-2.344.786-.076.147-.152.292-.23.432.003-.146.002-.29-.001-.435a.683.683 0 01-.091-.015c-.042.205-.102.378-.193.46.08.075.159.145.24.22 0 0 .033.122.07.282.614-.522 3.007-2.329 6.726-2.25 1.973.042 4.316.618 6.956 2.203 1.68 1.008 2.908 2.142 3.811 3.282l-4.932-2.23 6.021 3.87c1.653 3.018 1.332 5.678 1.332 5.678s-.648-.469-1.777-1.167c.075-1.133.162-2.557.162-2.557l-1.5 1.763a49.423 49.423 0 00-1.593-.879l-.973-2.962.086 2.51a46.161 46.161 0 00-3.924-1.757l-.073-2.982-1.055 2.56a37.62 37.62 0 00-2.733-.863l-.244-2.867-1.375 2.314c2.184.803 4.72 2.722 6.393 7.152 2.891 7.65-1.394 13.032-1.394 13.032a91.183 91.183 0 00-.325-1.117c.422-.54.84-1.2.84-1.2l-1.12.275a87.914 87.914 0 00-1.07-3.256l3.308-1.537-4.008.003c-.342-.96-.15-.805-.54-1.77l.634-.585-1.088-.498a57.025 57.025 0 00-.684-1.546l2.602-2.256-3.766-.144c-.732-1.512-.758-1.397-1.598-2.656l4.404-.668-4.781.119a20.5 20.5 0 00-.584-.783l2.198-1.268-2.653.71c-.753-.884-1.538-1.62-2.354-2.147-.245-.159-.402-.269-.6-.401-2.729-.19-2.143-1.063-1.048-1.816a10.92 10.92 0 00-1.945-.771l.066-2.807-1.264 2.614c-.857-.184-.854-.191-1.715-.183l-.71-2.532-.447 2.506c-.199.013-.397.03-.596.05l-1.258-4.03.118 4.19a23.59 23.59 0 00-2.77.67l-.954-2.306-.381 2.767c-.434.14-.227.046-.657.199l-1.651-1.543.172 2.084c-.34.128-.678.255-1.014.383l-1.466-2.446.349 2.76c-.34.128.072.08-.263.204l-1.055-.798.311 1.068c-.669.24-1.33.466-1.98.659 0 0 2.323-8.004 8.43-9.367.809-.18 1.603-.272 2.39-.274 3.088-.005 6.077 1.395 9.467 4.345a8.407 8.407 0 01-.21-.407 13.524 13.524 0 00-1.483-2.417l1.817-1.444-2.662.447a14.065 14.065 0 00-.381-.395l.334-1.856-1.023 1.219a17.717 17.717 0 00-3.07-2.122l-.132-1.53-.559 1.16a25.453 25.453 0 00-.562-.278l.143-1.845-.691 1.59c-.156-.071-.313-.14-.471-.208l.258-2.084-.857 1.831a55.191 55.191 0 00-3.63-1.318l-.005-1.837-.88 1.547c-.926-.3-1.842-.592-2.724-.891 0 0 2.875-1.688 6.637-1.744a11.7 11.7 0 014.704.882c.375.156.725.32 1.053.495a30.99 30.99 0 00-1.112-1.12l1.414-1.63-1.88 1.194a37.483 37.483 0 00-2.714-2.269l.87-1.697-1.535 1.206C30.657 1.2 29.497.54 29.497.54s1.543-.133 3.68-.122zm8.715 4.463L38.27 7.328c.388.277.74.577 1.06.907zm1.198 5.221l-1.907 1.104c.114.279.222.574.327.88zm1.055 2.42l-1.828 1.244-.372-.26c.11.404.22.827.326 1.275zm-.848 9.822l.077.036s.099-.015.142-.023l-.219-.013z"/><path d="M34.83 16.51c-2.269-.46-5.33-1.183-7.75-.889-3.516.428-4.735 6.1-4.414 10.755a15.393 15.393 0 00-.138-.243s.193-4.856-6.54-6.532c-.45-.111-.929-.209-1.441-.29-6.806-1.076-9.53 2.42-9.53 2.42s.51.03 1.35.134l.618-.763-.047.84c.256.037.53.08.827.13l1.654-1.292.413 1.704c.33.075.663.153 1.013.244l3.862-1.783-.538 2.83c.98.366 1.982.796 2.98 1.304l1.8-1.576-1.016 1.99c.768.424 1.526.899 2.262 1.423l1.327-1.167-.417 1.85c.055.043.11.084.165.128.835.677 1.387 1.023 1.74 1.147.03.136.06.27.093.402.03-.12.062-.237.096-.354a.58.58 0 00.077.007c-.01.176.002.33.058.417l-.243.127s-.053.092-.119.214c-.387-.558-1.945-2.546-4.99-3.285-1.616-.392-3.648-.43-6.14.29-1.586.459-2.832 1.116-3.814 1.85l4.499-.75-5.74 1.85c-1.998 2.1-2.312 4.336-2.312 4.336s.63-.242 1.7-.567c.183-.938.42-2.117.42-2.117l.84 1.76c.457-.123.95-.247 1.488-.371l1.433-2.202-.613 2.025a38.888 38.888 0 013.575-.583l.704-2.412.306 2.313a31.696 31.696 0 012.412-.113l.819-2.282.619 2.181c-1.952.182-4.431 1.198-6.752 4.443-4.007 5.605-1.68 10.915-1.68 10.915.16-.273.332-.555.506-.84a14.987 14.987 0 01-.425-1.159l.853.467a74.04 74.04 0 011.574-2.421l-2.36-1.967 3.262.869c.486-.708.296-.623.822-1.325l-.39-.613.994-.171c.293-.376.59-.747.891-1.111l-1.632-2.4 3.099.697c.922-1.073.919-.973 1.875-1.817l-3.442-1.496 3.868 1.13c.215-.18.43-.349.644-.511l-1.515-1.508 2.006 1.152c.804-.558 1.603-.987 2.381-1.24.234-.077.386-.132.576-.197 2.263.434 1.975-.403 1.246-1.252a9.198 9.198 0 011.75-.208l.552-2.3.465 2.401c.738.036.737.03 1.437.222l1.124-1.908-.177 2.137c.16.053.317.11.475.17l1.895-3.011-1.001 3.386c.72.332 1.423.722 2.111 1.145l1.275-1.671-.288 2.335c.323.208.175.087.492.304l1.678-.9-.59 1.66.743.531 1.722-1.675-.88 2.172c.248.178-.077.05.17.223l1.03-.421-.483.802c.493.34.983.667 1.47.964 0 0-.162-7.02-4.841-9.449a9.283 9.283 0 00-1.887-.74c-2.514-.671-5.25-.177-8.648 1.493.08-.085.163-.175.258-.286a11.47 11.47 0 011.73-1.648l-1.167-1.569 2.071.94c.131-.082.263-.163.396-.24l.129-1.583.57 1.214a14.928 14.928 0 012.958-1.066l.438-1.217.204 1.066c.173-.037.345-.072.519-.105l.282-1.534.219 1.445c.143-.024.285-.047.428-.068l.24-1.753.303 1.677a46.504 46.504 0 013.24-.29l.402-1.494.382 1.45c.82-.045 1.628-.085 2.411-.137 0 0-1.976-1.996-5.028-2.854a9.858 9.858 0 00-4.986-.124c.384-.237.768-.462 1.148-.671l-.8-1.633 1.273 1.379a31.58 31.58 0 012.7-1.262l-.341-1.57.99 1.314a27.954 27.954 0 012.659-.894s-1.207-.537-2.971-.894zm-8.062 1.75l2.421 2.777a6.42 6.42 0 00-1.058.509zm-2.103 3.994l1.314 1.31c-.153.203-.305.42-.457.647zm-1.383 1.742l1.22 1.408.36-.131a31.72 31.72 0 00-.542.968zm-1.431 8.182l-.07.013s-.078-.033-.111-.05l.18.037z"/></g></svg>