<svg width="256" height="256" viewBox="0 0 67.733 67.733" xmlns="http://www.w3.org/2000/svg"><g paint-order="stroke markers fill" fill="#fff"><path d="M4.331 8.275c-1.068-.008-2.153.088-2.685.505-1.062.834.07 4.385.592 5.37.522.985 10.948 10.533 11.634 11.56.686 1.028 4.2 6.156 4.989 7.05.788.894 6.465 6.34 7.434 7 .968.659 3.894 1.59 4.624 2.286.73.695 8.562 9.078 12.778 11.05 4.215 1.973 11.117 5.899 11.313 5.697.282-.421-.334-2.569-.334-2.569s-.87-1.195-1.196-1.647l11.832-3.733s-1.593-1.462-1.842-1.587c-.124-.062-.294-.068-.434-.058-.139.009-.247.034-.247.034l-9.675.823 1.312-4.104s-.58-.911-1.176-1.46c-.595-.55-1.612-1.09-1.612-1.09l-5.104 2.001-.03-.035c-.49-.495-6.655-6.67-11.69-11.715l6.09-3.301s26.428-9.475 25.985-9.966c-.333-.367-2.09-.49-3.402-.477-.438.004-.826.023-1.095.053-.769.086-15.807 2.485-26.122 4.134.058.086.135.19.187.271.191.299.343.567.45.82.106.254.186.501.128.8-.087.445-.345.851-.633 1.292-.287.441-.586.842-.838 1.09-.28.276-.66.484-1.06.657-.4.172-.74.336-1.205.25-.146-.028-.228-.067-.36-.122a10.286 10.286 0 01-.462-.21c-.353-.17-.784-.39-1.223-.634-.44-.243-.885-.507-1.268-.761-.382-.255-.692-.477-.914-.747a26.016 26.016 0 01-1.041-1.39c-.043.007-.69.138-1.217.244-7.507-7.482-14.556-14.46-15.038-14.736-1.064-.608-3.956-2.524-4.87-2.524-.458 0-1.507-.113-2.575-.121zM35.175 24.27l-6.04.965c.27.37.53.715.709.93.07.086.348.32.697.552.348.232.775.485 1.197.719.422.233.84.447 1.17.605.165.08.31.144.418.19.108.044.205.069.156.06-.074-.014.309-.046.628-.184.318-.137.652-.351.751-.449.128-.125.444-.528.703-.926.259-.397.476-.865.49-.937-.007.04 0-.056-.07-.22a4.838 4.838 0 00-.37-.669c-.118-.183-.283-.414-.44-.636zm-18.78 5.977l-3.182 4.006c.037.05.086.107.121.155.441.604.758 1.103.852 1.637.085.484.04 1.091-.108 1.701-.147.61-.378 1.222-.883 1.611a4.06 4.06 0 01-1.271.645c-.42.13-.776.197-1.127.142-.192-.03-.263-.08-.395-.144a8.231 8.231 0 01-.453-.246c-.216-.124-.485-.297-.742-.458L1.166 49.418c-.153.25.142 1.514.313 1.88.167.286 1.332 1.152 1.646 1.075.233-.062.613-.985.78-1.176l13.318-10.339 7.01-2.221c-.633-.58-1.34-1.235-2.067-1.926-1.643-1.56-3.225-3.105-3.68-3.621-.39-.443-1.212-1.594-2.09-2.843zm-3.825 4.815l-2.736 3.445c.21.131.44.28.613.38.159.09.297.165.397.214.056.028.108.045.13.054.062.003.348-.015.655-.11.323-.1.681-.267.955-.478.168-.13.403-.564.522-1.055.118-.49.14-1.04.095-1.293-.034-.196-.254-.629-.631-1.157zm31.907 18.969c-1.207 1.919-3.375 5.356-3.553 5.573-.233.282-.01.745-.01.745l1.343 1.358 7.534-4.943c-1.752-.925-3.643-1.917-5.314-2.733z"/><path d="M30.706 19.656c-.719.031-1.606.445-2.367 1.145-1.016.935-.925 2.268-.856 2.71.069.443 1.391 2.263 1.975 2.973.584.71 3.54 2.226 3.932 2.3.392.073 1.445-.397 1.823-.77.38-.374 1.231-1.606 1.332-2.124.101-.517-.78-1.691-2.043-3.399-.522-.671-2.382-2.421-3.145-2.735a1.539 1.539 0 00-.651-.1zm.137.235a.64.64 0 01.262.056c.622.293.263 1.972-.272 2.644-.535.672-1.818 1.497-2.565 1.106-.747-.392-.144-1.826.39-2.486.461-.567 1.512-1.334 2.185-1.32zM8.453 30.637c-.683.019-1.464.329-2.11.842-.938.746-1.175 2.088-1.175 2.835 0 .746 1.475 2.288 1.978 2.87.502.58 3.34 2.405 3.729 2.466.389.061 1.343-.17 2.015-.689.673-.519.933-2.09.803-2.829-.13-.738-1.097-1.912-2.428-3.477-.503-.557-1.177-1.468-1.967-1.854a1.809 1.809 0 00-.846-.164zm.06.244a.45.45 0 01.276.09c.461.376.8 1.497-.397 2.623-1.197 1.126-2.144 1.312-2.584.965-.439-.347-.046-1.738.662-2.542.41-.46 1.45-1.155 2.043-1.136z"/></g></svg>